<svg width="281" height="132" viewBox="0 0 281 132" fill="none" xmlns="http://www.w3.org/2000/svg">
<path d="M237.745 61.8126L246.136 42.5798H255.363L264.068 61.8126H258.148L251.115 45.5569L252.926 46.1102H248.434L250.314 45.5569L243.455 61.8126H237.745ZM244.116 57.0439L245.857 53.4608H255.816L257.591 57.0439H244.116Z" fill="#EFEDDE"/>
<path d="M208.089 61.8126V42.5798H215.958L221.773 53.3818H222.435L228.18 42.5798H236.188V61.8126H230.547V45.3988L231.348 45.4515L224.628 57.9133H219.197L212.442 45.4515L213.312 45.3988V61.8126H208.089Z" fill="#EFEDDE"/>
<path d="M189.157 61.8126V42.5798H194.728V61.8126H189.157ZM194.031 61.8126V58.2295H205.139V61.8126H194.031ZM194.031 53.8296V50.2465H204.338V53.8296H194.031ZM194.031 46.1629V42.5798H204.895V46.1629H194.031Z" fill="#EFEDDE"/>
<path d="M160.397 61.8126V42.5798H169.764L179.339 58.3085H180.523L179.826 58.7827V42.5798H185.188V61.8126H175.753L166.177 46.0838H164.994L165.69 45.6096V61.8126H160.397Z" fill="#EFEDDE"/>
<path d="M150.647 61.8126V42.5798H156.357V61.8126H150.647Z" fill="#EFEDDE"/>
<path d="M136.135 62.3132C133.836 62.3132 131.863 62.0146 130.215 61.4174C128.567 60.8026 127.221 60.0035 126.176 59.0199C125.132 58.0187 124.354 56.9473 123.844 55.8056C123.356 54.6464 123.112 53.5223 123.112 52.4333V51.8537C123.112 50.6593 123.368 49.4825 123.878 48.3233C124.389 47.1465 125.167 46.0839 126.211 45.1354C127.279 44.1869 128.614 43.4317 130.215 42.8696C131.84 42.29 133.755 42.0002 135.96 42.0002C138.258 42.0002 140.29 42.3251 142.054 42.975C143.818 43.6249 145.222 44.5294 146.267 45.6887C147.335 46.8303 147.961 48.174 148.147 49.7196H142.402C142.239 48.9468 141.868 48.2882 141.288 47.7437C140.707 47.1992 139.953 46.7776 139.024 46.4791C138.119 46.1805 137.098 46.0312 135.96 46.0312C134.823 46.0312 133.813 46.1805 132.931 46.4791C132.049 46.7776 131.306 47.1992 130.703 47.7437C130.122 48.2882 129.67 48.938 129.345 49.6933C129.043 50.431 128.892 51.2565 128.892 52.1698C128.892 53.0656 129.043 53.8911 129.345 54.6464C129.67 55.3841 130.134 56.034 130.738 56.596C131.364 57.1405 132.13 57.5621 133.036 57.8606C133.941 58.1417 134.974 58.2822 136.135 58.2822C137.899 58.2822 139.384 57.9572 140.591 57.3074C141.822 56.6575 142.564 55.7617 142.82 54.6201H148.53C148.321 56.0252 147.694 57.3162 146.65 58.493C145.628 59.6522 144.224 60.5831 142.437 61.2857C140.673 61.9707 138.572 62.3132 136.135 62.3132Z" fill="#EFEDDE"/>
<path d="M102.736 62.3132C100.438 62.3132 98.43 62.0146 96.7122 61.4174C95.0177 60.8026 93.6134 60.0035 92.4992 59.0199C91.385 58.0187 90.5493 56.9385 89.9922 55.7793C89.4584 54.6201 89.1914 53.5047 89.1914 52.4333V51.8537C89.1914 50.6593 89.47 49.4825 90.0271 48.3233C90.6074 47.1465 91.4662 46.0839 92.6036 45.1354C93.741 44.1869 95.157 43.4317 96.8515 42.8696C98.546 42.29 100.507 42.0002 102.736 42.0002C104.964 42.0002 106.926 42.29 108.62 42.8696C110.315 43.4317 111.731 44.1869 112.868 45.1354C114.006 46.0839 114.864 47.1465 115.445 48.3233C116.025 49.4825 116.315 50.6593 116.315 51.8537V52.4333C116.315 53.5047 116.037 54.6201 115.48 55.7793C114.922 56.9385 114.087 58.0187 112.973 59.0199C111.858 60.0035 110.442 60.8026 108.725 61.4174C107.03 62.0146 105.034 62.3132 102.736 62.3132ZM102.736 58.2822C103.943 58.2822 105.022 58.1241 105.974 57.808C106.949 57.4918 107.773 57.0527 108.446 56.4906C109.143 55.9286 109.665 55.2787 110.013 54.541C110.361 53.8033 110.535 53.0129 110.535 52.1698C110.535 51.2741 110.35 50.4573 109.978 49.7196C109.63 48.9644 109.108 48.3145 108.411 47.77C107.738 47.208 106.926 46.7776 105.974 46.4791C105.022 46.1805 103.943 46.0312 102.736 46.0312C101.529 46.0312 100.449 46.1805 99.4977 46.4791C98.546 46.7776 97.722 47.208 97.0256 47.77C96.3525 48.3145 95.8418 48.9644 95.4936 49.7196C95.1454 50.4573 94.9713 51.2741 94.9713 52.1698C94.9713 53.0129 95.1454 53.8033 95.4936 54.541C95.8418 55.2787 96.3525 55.9286 97.0256 56.4906C97.722 57.0527 98.546 57.4918 99.4977 57.808C100.449 58.1241 101.529 58.2822 102.736 58.2822Z" fill="#EFEDDE"/>
<path d="M80.8763 61.8126V42.5798H86.5866V61.8126H80.8763ZM64.4419 61.8126V42.5798H70.1522V61.8126H64.4419ZM69.1424 54.0404V50.2465H81.8861V54.0404H69.1424Z" fill="#EFEDDE"/>
<path d="M48.2769 62.3132C45.9789 62.3132 43.971 62.0146 42.2533 61.4174C40.5587 60.8026 39.1544 60.0035 38.0402 59.0199C36.926 58.0187 36.0904 56.9385 35.5333 55.7793C34.9994 54.6201 34.7324 53.5047 34.7324 52.4333V51.8537C34.7324 50.6593 35.011 49.4825 35.5681 48.3233C36.1484 47.1465 37.0072 46.0839 38.1447 45.1354C39.2821 44.1869 40.698 43.4317 42.3925 42.8696C44.087 42.29 46.0485 42.0002 48.2769 42.0002C50.5053 42.0002 52.4667 42.29 54.1613 42.8696C55.8558 43.4317 57.2717 44.1869 58.4091 45.1354C59.5465 46.0839 60.4054 47.1465 60.9857 48.3233C61.566 49.4825 61.8562 50.6593 61.8562 51.8537V52.4333C61.8562 53.5047 61.5776 54.6201 61.0205 55.7793C60.4634 56.9385 59.6278 58.0187 58.5136 59.0199C57.3994 60.0035 55.9834 60.8026 54.2657 61.4174C52.5712 62.0146 50.5749 62.3132 48.2769 62.3132ZM48.2769 58.2822C49.4839 58.2822 50.5633 58.1241 51.515 57.808C52.49 57.4918 53.314 57.0527 53.9872 56.4906C54.6835 55.9286 55.2058 55.2787 55.554 54.541C55.9022 53.8033 56.0763 53.0129 56.0763 52.1698C56.0763 51.2741 55.8906 50.4573 55.5192 49.7196C55.171 48.9644 54.6487 48.3145 53.9523 47.77C53.2792 47.208 52.4667 46.7776 51.515 46.4791C50.5633 46.1805 49.4839 46.0312 48.2769 46.0312C47.0698 46.0312 45.9905 46.1805 45.0388 46.4791C44.087 46.7776 43.263 47.208 42.5666 47.77C41.8935 48.3145 41.3828 48.9644 41.0346 49.7196C40.6864 50.4573 40.5123 51.2741 40.5123 52.1698C40.5123 53.0129 40.6864 53.8033 41.0346 54.541C41.3828 55.2787 41.8935 55.9286 42.5666 56.4906C43.263 57.0527 44.087 57.4918 45.0388 57.808C45.9905 58.1241 47.0698 58.2822 48.2769 58.2822Z" fill="#EFEDDE"/>
<path d="M22.0705 61.8126V45.8204H27.7807V61.8126H22.0705ZM14.9326 46.3473V42.5798H34.9534V46.3473H14.9326Z" fill="#EFEDDE"/>
<path d="M215.264 85.0224V74.5013H216.461V78.9166H216.221C216.221 77.9354 216.368 77.0935 216.66 76.3907C216.953 75.688 217.392 75.1444 217.977 74.7599C218.563 74.3754 219.301 74.1831 220.192 74.1831H220.252C221.583 74.1831 222.574 74.6008 223.225 75.4361C223.877 76.2582 224.203 77.4183 224.203 78.9166V85.0224H222.727V78.5984C222.727 77.6835 222.474 76.9476 221.968 76.3907C221.463 75.8339 220.758 75.5554 219.853 75.5554C218.922 75.5554 218.17 75.8471 217.598 76.4305C217.04 77.0007 216.76 77.7564 216.76 78.6978V85.0224H215.264Z" fill="#EFEDDE"/>
<path d="M206.644 85.3606C205.74 85.3606 204.942 85.2081 204.25 84.9031C203.571 84.5849 202.993 84.1672 202.514 83.6501C202.048 83.1198 201.689 82.5297 201.436 81.88C201.197 81.2304 201.077 80.5674 201.077 79.8912V79.6127C201.077 78.9365 201.204 78.2736 201.456 77.6239C201.709 76.9609 202.075 76.3709 202.554 75.8538C203.033 75.3367 203.611 74.9257 204.29 74.6207C204.982 74.3025 205.766 74.1434 206.644 74.1434C207.536 74.1434 208.321 74.3025 208.999 74.6207C209.691 74.9257 210.276 75.3367 210.755 75.8538C211.234 76.3709 211.593 76.9609 211.833 77.6239C212.085 78.2736 212.212 78.9365 212.212 79.6127V79.8912C212.212 80.5674 212.092 81.2304 211.853 81.88C211.613 82.5297 211.254 83.1198 210.775 83.6501C210.309 84.1672 209.731 84.5849 209.039 84.9031C208.347 85.2081 207.549 85.3606 206.644 85.3606ZM206.644 84.028C207.522 84.028 208.261 83.8358 208.859 83.4512C209.471 83.0535 209.937 82.5364 210.256 81.8999C210.575 81.2502 210.735 80.5343 210.735 79.752C210.735 78.9564 210.569 78.2404 210.236 77.604C209.917 76.9543 209.451 76.4438 208.839 76.0726C208.227 75.6881 207.496 75.4958 206.644 75.4958C205.806 75.4958 205.081 75.6881 204.469 76.0726C203.857 76.4438 203.385 76.9543 203.053 77.604C202.733 78.2404 202.574 78.9564 202.574 79.752C202.574 80.5343 202.733 81.2502 203.053 81.8999C203.372 82.5364 203.831 83.0535 204.429 83.4512C205.041 83.8358 205.78 84.028 206.644 84.028Z" fill="#EFEDDE"/>
<path d="M196.511 85.0224V74.5013H197.988V85.0224H196.511ZM194.815 75.6947V74.5013H197.988V75.6947H194.815ZM196.83 72.5523C196.471 72.5523 196.198 72.4594 196.012 72.2738C195.839 72.0749 195.753 71.8296 195.753 71.5379C195.753 71.2462 195.839 71.0076 196.012 70.822C196.198 70.6231 196.471 70.5236 196.83 70.5236C197.19 70.5236 197.456 70.6231 197.629 70.822C197.801 71.0076 197.888 71.2462 197.888 71.5379C197.888 71.8296 197.801 72.0749 197.629 72.2738C197.456 72.4594 197.19 72.5523 196.83 72.5523Z" fill="#EFEDDE"/>
<path d="M191.384 85.1418C190.653 85.1418 190.021 85.0357 189.489 84.8236C188.957 84.6114 188.544 84.2535 188.252 83.7496C187.959 83.2325 187.813 82.543 187.813 81.6812V71.18H189.249V81.9C189.249 82.5099 189.416 82.9806 189.748 83.3121C190.081 83.6303 190.553 83.7894 191.165 83.7894H193.061V85.1418H191.384ZM185.917 75.635V74.5014H193.061V75.635H185.917Z" fill="#EFEDDE"/>
<path d="M178.934 85.3606C178.03 85.3606 177.232 85.2081 176.54 84.9031C175.861 84.5849 175.283 84.1672 174.804 83.6501C174.338 83.1198 173.979 82.5297 173.726 81.88C173.487 81.2304 173.367 80.5674 173.367 79.8912V79.6127C173.367 78.9365 173.494 78.2736 173.746 77.6239C173.999 76.9609 174.365 76.3709 174.844 75.8538C175.323 75.3367 175.901 74.9257 176.58 74.6207C177.272 74.3025 178.056 74.1434 178.934 74.1434C179.826 74.1434 180.611 74.3025 181.289 74.6207C181.981 74.9257 182.566 75.3367 183.045 75.8538C183.524 76.3709 183.883 76.9609 184.123 77.6239C184.375 78.2736 184.502 78.9365 184.502 79.6127V79.8912C184.502 80.5674 184.382 81.2304 184.143 81.88C183.903 82.5297 183.544 83.1198 183.065 83.6501C182.599 84.1672 182.021 84.5849 181.329 84.9031C180.637 85.2081 179.839 85.3606 178.934 85.3606ZM178.934 84.028C179.812 84.028 180.551 83.8358 181.149 83.4512C181.761 83.0535 182.227 82.5364 182.546 81.8999C182.865 81.2502 183.025 80.5343 183.025 79.752C183.025 78.9564 182.859 78.2404 182.526 77.604C182.207 76.9543 181.741 76.4438 181.129 76.0726C180.518 75.6881 179.786 75.4958 178.934 75.4958C178.096 75.4958 177.371 75.6881 176.759 76.0726C176.148 76.4438 175.675 76.9543 175.343 77.604C175.023 78.2404 174.864 78.9564 174.864 79.752C174.864 80.5343 175.023 81.2502 175.343 81.8999C175.662 82.5364 176.121 83.0535 176.72 83.4512C177.331 83.8358 178.07 84.028 178.934 84.028Z" fill="#EFEDDE"/>
<path d="M155.011 85.0224V74.4814H156.208V78.9166H155.969C155.969 77.9487 156.102 77.1134 156.368 76.4106C156.647 75.7079 157.059 75.1643 157.605 74.7798C158.15 74.382 158.842 74.1831 159.68 74.1831H159.74C160.578 74.1831 161.27 74.3754 161.815 74.7599C162.361 75.1444 162.766 75.688 163.032 76.3907C163.298 77.0935 163.432 77.9354 163.432 78.9166H162.953C162.953 77.9487 163.086 77.1134 163.352 76.4106C163.631 75.7079 164.043 75.1643 164.589 74.7798C165.148 74.382 165.846 74.1831 166.684 74.1831H166.744C167.582 74.1831 168.274 74.3754 168.819 74.7599C169.378 75.1444 169.79 75.688 170.056 76.3907C170.336 77.0935 170.475 77.9354 170.475 78.9166V85.0224H168.979V78.5785C168.979 77.6504 168.753 76.9145 168.3 76.3709C167.848 75.8272 167.196 75.5554 166.345 75.5554C165.467 75.5554 164.768 75.8405 164.25 76.4106C163.744 76.9675 163.491 77.7233 163.491 78.6779V85.0224H161.995V78.5785C161.995 77.6504 161.769 76.9145 161.316 76.3709C160.864 75.8272 160.212 75.5554 159.361 75.5554C158.483 75.5554 157.784 75.8405 157.266 76.4106C156.76 76.9675 156.507 77.7233 156.507 78.6779V85.0224H155.011Z" fill="#EFEDDE"/>
<path d="M146.392 85.3606C145.487 85.3606 144.689 85.2081 143.997 84.9031C143.319 84.5849 142.74 84.1672 142.261 83.6501C141.795 83.1198 141.436 82.5297 141.183 81.88C140.944 81.2304 140.824 80.5674 140.824 79.8912V79.6127C140.824 78.9365 140.951 78.2736 141.203 77.6239C141.456 76.9609 141.822 76.3709 142.301 75.8538C142.78 75.3367 143.358 74.9257 144.037 74.6207C144.729 74.3025 145.514 74.1434 146.392 74.1434C147.283 74.1434 148.068 74.3025 148.746 74.6207C149.438 74.9257 150.023 75.3367 150.502 75.8538C150.981 76.3709 151.34 76.9609 151.58 77.6239C151.832 78.2736 151.959 78.9365 151.959 79.6127V79.8912C151.959 80.5674 151.839 81.2304 151.6 81.88C151.36 82.5297 151.001 83.1198 150.522 83.6501C150.056 84.1672 149.478 84.5849 148.786 84.9031C148.094 85.2081 147.296 85.3606 146.392 85.3606ZM146.392 84.028C147.269 84.028 148.008 83.8358 148.606 83.4512C149.218 83.0535 149.684 82.5364 150.003 81.8999C150.323 81.2502 150.482 80.5343 150.482 79.752C150.482 78.9564 150.316 78.2404 149.983 77.604C149.664 76.9543 149.198 76.4438 148.586 76.0726C147.975 75.6881 147.243 75.4958 146.392 75.4958C145.553 75.4958 144.828 75.6881 144.216 76.0726C143.605 76.4438 143.132 76.9543 142.8 77.604C142.48 78.2404 142.321 78.9564 142.321 79.752C142.321 80.5343 142.48 81.2502 142.8 81.8999C143.119 82.5364 143.578 83.0535 144.177 83.4512C144.788 83.8358 145.527 84.028 146.392 84.028Z" fill="#EFEDDE"/>
<path d="M133.75 85.0224V74.5014H134.948V78.8967H134.828C134.828 77.3587 135.167 76.225 135.846 75.4958C136.524 74.7533 137.588 74.382 139.038 74.382H139.378V75.7344H138.759C137.615 75.7344 136.744 76.0328 136.145 76.6294C135.546 77.2128 135.247 78.0747 135.247 79.215V85.0224H133.75Z" fill="#EFEDDE"/>
<path d="M120.11 89.0002V74.5014H121.307V79.0161L120.948 79.0559C121.001 77.9951 121.227 77.1001 121.626 76.3709C122.039 75.6416 122.591 75.0914 123.283 74.7201C123.988 74.3356 124.773 74.1434 125.637 74.1434C126.409 74.1434 127.107 74.2959 127.732 74.6008C128.371 74.8925 128.91 75.2969 129.349 75.814C129.801 76.3179 130.14 76.9013 130.366 77.5642C130.606 78.2139 130.726 78.8968 130.726 79.6127V79.8912C130.726 80.6072 130.606 81.2966 130.366 81.9596C130.127 82.6093 129.781 83.1927 129.329 83.7098C128.89 84.2136 128.351 84.618 127.712 84.923C127.087 85.2147 126.382 85.3606 125.597 85.3606C124.759 85.3606 123.988 85.1749 123.283 84.8037C122.591 84.4192 122.025 83.8557 121.586 83.1131C121.161 82.3706 120.928 81.4558 120.888 80.3685L121.606 81.8602V89.0002H120.11ZM125.398 84.0479C126.196 84.0479 126.881 83.8623 127.453 83.491C128.025 83.1065 128.464 82.5894 128.77 81.9397C129.076 81.2768 129.229 80.5475 129.229 79.752C129.229 78.9299 129.069 78.2007 128.75 77.5642C128.444 76.9145 128.005 76.404 127.433 76.0328C126.861 75.6483 126.183 75.456 125.398 75.456C124.679 75.456 124.028 75.6151 123.442 75.9333C122.857 76.2516 122.391 76.7024 122.045 77.2858C121.713 77.8559 121.547 78.5321 121.547 79.3144V80.289C121.547 81.0315 121.713 81.6878 122.045 82.2579C122.391 82.8148 122.857 83.2524 123.442 83.5706C124.028 83.8888 124.679 84.0479 125.398 84.0479Z" fill="#EFEDDE"/>
<path d="M107.703 85.3606C106.798 85.3606 106.014 85.2081 105.348 84.9031C104.683 84.5849 104.138 84.1672 103.712 83.6501C103.287 83.1198 102.967 82.5297 102.754 81.88C102.555 81.2304 102.455 80.5608 102.455 79.8713V79.5929C102.455 78.9166 102.555 78.2537 102.754 77.604C102.967 76.9543 103.287 76.3709 103.712 75.8538C104.138 75.3367 104.67 74.9257 105.309 74.6207C105.96 74.3025 106.719 74.1434 107.583 74.1434C108.688 74.1434 109.605 74.3887 110.337 74.8793C111.082 75.3698 111.641 75.9996 112.013 76.7687C112.386 77.5244 112.572 78.3399 112.572 79.215V79.9906H103.134V78.8371H111.534L111.155 79.4139C111.155 78.6316 111.016 77.9487 110.736 77.3653C110.47 76.7687 110.071 76.3046 109.539 75.9731C109.02 75.6284 108.368 75.456 107.583 75.456C106.759 75.456 106.073 75.6483 105.528 76.0328C104.983 76.4173 104.57 76.9278 104.291 77.5642C104.025 78.2007 103.892 78.9233 103.892 79.7321C103.892 80.5276 104.025 81.2569 104.291 81.9198C104.57 82.5695 104.989 83.0866 105.548 83.4711C106.12 83.8557 106.838 84.0479 107.703 84.0479C108.621 84.0479 109.366 83.8424 109.938 83.4314C110.51 83.0071 110.863 82.5099 110.996 81.9397H112.392C112.259 82.6424 111.98 83.2524 111.554 83.7695C111.129 84.2733 110.59 84.6645 109.938 84.9429C109.286 85.2213 108.541 85.3606 107.703 85.3606Z" fill="#EFEDDE"/>
<path d="M97.8885 85.0224V74.5013H99.3651V85.0224H97.8885ZM96.1924 75.6947V74.5013H99.3651V75.6947H96.1924ZM98.2078 72.5523C97.8486 72.5523 97.5759 72.4594 97.3896 72.2738C97.2167 72.0749 97.1302 71.8296 97.1302 71.5379C97.1302 71.2462 97.2167 71.0076 97.3896 70.822C97.5759 70.6231 97.8486 70.5236 98.2078 70.5236C98.567 70.5236 98.833 70.6231 99.006 70.822C99.1789 71.0076 99.2654 71.2462 99.2654 71.5379C99.2654 71.8296 99.1789 72.0749 99.006 72.2738C98.833 72.4594 98.567 72.5523 98.2078 72.5523Z" fill="#EFEDDE"/>
<path d="M88.7721 85.0224L85.0605 74.5013H86.597L90.2686 85.0224H88.7721ZM89.1712 85.0224V83.8092H91.0668V85.0224H89.1712ZM89.9893 85.0224L93.2019 74.5013H94.6786L91.406 85.0224H89.9893Z" fill="#EFEDDE"/>
<path d="M77.9735 85.3606C77.0689 85.3606 76.2708 85.2081 75.579 84.9031C74.9006 84.5849 74.3219 84.1672 73.843 83.6501C73.3774 83.1198 73.0182 82.5297 72.7654 81.88C72.526 81.2304 72.4062 80.5674 72.4062 79.8912V79.6127C72.4062 78.9365 72.5326 78.2736 72.7854 77.6239C73.0381 76.9609 73.404 76.3709 73.8829 75.8538C74.3618 75.3367 74.9405 74.9257 75.6189 74.6207C76.3107 74.3025 77.0955 74.1434 77.9735 74.1434C78.8648 74.1434 79.6497 74.3025 80.3282 74.6207C81.0199 74.9257 81.6052 75.3367 82.0841 75.8538C82.563 76.3709 82.9222 76.9609 83.1617 77.6239C83.4144 78.2736 83.5408 78.9365 83.5408 79.6127V79.8912C83.5408 80.5674 83.4211 81.2304 83.1816 81.88C82.9422 82.5297 82.583 83.1198 82.1041 83.6501C81.6385 84.1672 81.0598 84.5849 80.3681 84.9031C79.6763 85.2081 78.8781 85.3606 77.9735 85.3606ZM77.9735 84.028C78.8515 84.028 79.5898 83.8358 80.1885 83.4512C80.8004 83.0535 81.266 82.5364 81.5853 81.8999C81.9046 81.2502 82.0642 80.5343 82.0642 79.752C82.0642 78.9564 81.8979 78.2404 81.5653 77.604C81.2461 76.9543 80.7805 76.4438 80.1685 76.0726C79.5566 75.6881 78.8249 75.4958 77.9735 75.4958C77.1354 75.4958 76.4104 75.6881 75.7985 76.0726C75.1866 76.4438 74.7143 76.9543 74.3817 77.604C74.0625 78.2404 73.9028 78.9564 73.9028 79.752C73.9028 80.5343 74.0625 81.2502 74.3817 81.8999C74.701 82.5364 75.16 83.0535 75.7586 83.4512C76.3705 83.8358 77.1088 84.028 77.9735 84.028Z" fill="#EFEDDE"/>
<path d="M54.0498 85.0224V74.4814H55.2471V78.9166H55.0076C55.0076 77.9487 55.1406 77.1134 55.4067 76.4106C55.6861 75.7079 56.0985 75.1643 56.6439 74.7798C57.1893 74.382 57.8811 74.1831 58.7191 74.1831H58.779C59.6171 74.1831 60.3088 74.3754 60.8543 74.7599C61.3997 75.1444 61.8054 75.688 62.0715 76.3907C62.3375 77.0935 62.4706 77.9354 62.4706 78.9166H61.9917C61.9917 77.9487 62.1247 77.1134 62.3908 76.4106C62.6701 75.7079 63.0825 75.1643 63.6279 74.7798C64.1866 74.382 64.8851 74.1831 65.7231 74.1831H65.783C66.6211 74.1831 67.3128 74.3754 67.8583 74.7599C68.417 75.1444 68.8294 75.688 69.0954 76.3907C69.3748 77.0935 69.5145 77.9354 69.5145 78.9166V85.0224H68.0179V78.5785C68.0179 77.6504 67.7917 76.9145 67.3394 76.3709C66.8871 75.8272 66.2353 75.5554 65.3839 75.5554C64.5059 75.5554 63.8075 75.8405 63.2887 76.4106C62.7832 76.9675 62.5304 77.7233 62.5304 78.6779V85.0224H61.0339V78.5785C61.0339 77.6504 60.8077 76.9145 60.3554 76.3709C59.9031 75.8272 59.2513 75.5554 58.3999 75.5554C57.5219 75.5554 56.8235 75.8405 56.3047 76.4106C55.7991 76.9675 55.5464 77.7233 55.5464 78.6779V85.0224H54.0498Z" fill="#EFEDDE"/>
<path d="M280 131C280 131 217.544 119 140.5 119C63.4563 119 1 131 1 131" stroke="#EFEDDE" stroke-width="2" stroke-linecap="round"/>
<path d="M0.999997 1.00018C0.999997 1.00018 63.0086 12.0002 139.5 12.0002C215.991 12.0002 278 1.00018 278 1.00018" stroke="#EFEDDE" stroke-width="2" stroke-linecap="round"/>
</svg>
